<svg width="487" height="121" viewBox="0 0 487 121" fill="none" xmlns="http://www.w3.org/2000/svg">
<rect y="4" width="218" height="68" fill="#F4FF69"/>
<path d="M18.41 66.7C13.09 66.7 9.31 65.1833 7.07 62.15C4.87667 59.1167 3.78 54.8233 3.78 49.27V25.75C3.78 20.2433 4.9 16.0433 7.14 13.15C9.38 10.21 13.1367 8.74 18.41 8.74C23.59 8.74 27.3 10.21 29.54 13.15C31.78 16.09 32.9 20.29 32.9 25.75V49.34C32.9 54.8933 31.8033 59.1867 29.61 62.22C27.4167 65.2067 23.6833 66.7 18.41 66.7ZM18.41 62.43C21.8633 62.43 24.2433 61.4267 25.55 59.42C26.8567 57.3667 27.51 54.38 27.51 50.46V24.77C27.51 20.85 26.8567 17.91 25.55 15.95C24.29 13.99 21.91 13.01 18.41 13.01C14.8633 13.01 12.4367 13.99 11.13 15.95C9.82333 17.8633 9.17 20.8033 9.17 24.77V50.46C9.17 54.4267 9.82333 57.4133 11.13 59.42C12.4367 61.4267 14.8633 62.43 18.41 62.43ZM41.7473 9.3H45.5973L63.6573 53.33V9.3H68.2773V66H64.4973L46.3673 21.48V66H41.7473V9.3ZM91.5545 66.7C86.2345 66.7 82.4545 65.1833 80.2145 62.15C78.0212 59.1167 76.9245 54.8233 76.9245 49.27V25.75C76.9245 20.2433 78.0445 16.0433 80.2845 13.15C82.5245 10.21 86.2812 8.74 91.5545 8.74C96.7345 8.74 100.445 10.21 102.685 13.15C104.925 16.09 106.045 20.29 106.045 25.75V49.34C106.045 54.8933 104.948 59.1867 102.755 62.22C100.561 65.2067 96.8279 66.7 91.5545 66.7ZM91.5545 62.43C95.0079 62.43 97.3879 61.4267 98.6945 59.42C100.001 57.3667 100.655 54.38 100.655 50.46V24.77C100.655 20.85 100.001 17.91 98.6945 15.95C97.4345 13.99 95.0545 13.01 91.5545 13.01C88.0079 13.01 85.5812 13.99 84.2745 15.95C82.9679 17.8633 82.3145 20.8033 82.3145 24.77V50.46C82.3145 54.4267 82.9679 57.4133 84.2745 59.42C85.5812 61.4267 88.0079 62.43 91.5545 62.43ZM126.932 66.7C122.499 66.7 119.115 65.3467 116.782 62.64C114.449 59.8867 113.119 56.1067 112.792 51.3L117.482 49.9C117.902 53.9133 118.789 56.9933 120.142 59.14C121.542 61.2867 123.829 62.36 127.002 62.36C132.322 62.36 134.982 59.63 134.982 54.17C134.982 51.8367 134.422 49.7833 133.302 48.01C132.229 46.2367 130.479 44.2067 128.052 41.92L118.042 32.33C116.222 30.65 114.892 28.9 114.052 27.08C113.259 25.2133 112.862 23.16 112.862 20.92C112.862 17.0467 114.005 14.06 116.292 11.96C118.625 9.81333 121.752 8.74 125.672 8.74C129.872 8.74 133.092 9.86 135.332 12.1C137.572 14.34 138.879 18.0033 139.252 23.09L134.702 24.28C134.422 20.4533 133.605 17.6067 132.252 15.74C130.945 13.8733 128.752 12.94 125.672 12.94C123.245 12.94 121.309 13.57 119.862 14.83C118.415 16.09 117.692 17.9567 117.692 20.43C117.692 22.0167 117.995 23.44 118.602 24.7C119.209 25.96 120.235 27.29 121.682 28.69L131.692 38.14C134.259 40.5667 136.265 43.0633 137.712 45.63C139.205 48.15 139.952 50.88 139.952 53.82C139.952 57.9267 138.762 61.1 136.382 63.34C134.002 65.58 130.852 66.7 126.932 66.7ZM160.529 66.7C155.209 66.7 151.429 65.1833 149.189 62.15C146.996 59.1167 145.899 54.8233 145.899 49.27V25.75C145.899 20.2433 147.019 16.0433 149.259 13.15C151.499 10.21 155.256 8.74 160.529 8.74C165.709 8.74 169.419 10.21 171.659 13.15C173.899 16.09 175.019 20.29 175.019 25.75V49.34C175.019 54.8933 173.922 59.1867 171.729 62.22C169.536 65.2067 165.802 66.7 160.529 66.7ZM160.529 62.43C163.982 62.43 166.362 61.4267 167.669 59.42C168.976 57.3667 169.629 54.38 169.629 50.46V24.77C169.629 20.85 168.976 17.91 167.669 15.95C166.409 13.99 164.029 13.01 160.529 13.01C156.982 13.01 154.556 13.99 153.249 15.95C151.942 17.8633 151.289 20.8033 151.289 24.77V50.46C151.289 54.4267 151.942 57.4133 153.249 59.42C154.556 61.4267 156.982 62.43 160.529 62.43ZM180.576 9.3H185.686L196.396 56.27L206.476 9.3H211.516L198.706 66H193.876L180.576 9.3Z" fill="black"/>
<path d="M234.41 9.3H247.43C252.563 9.3 256.367 10.4667 258.84 12.8C261.313 15.0867 262.55 18.6567 262.55 23.51C262.55 30.7433 259.843 34.7333 254.43 35.48C257.79 36.2733 260.24 37.86 261.78 40.24C263.32 42.5733 264.09 45.77 264.09 49.83C264.09 54.9167 262.877 58.8833 260.45 61.73C258.07 64.5767 254.43 66 249.53 66H234.41V9.3ZM247.01 32.96C250.277 32.96 252.54 32.26 253.8 30.86C255.06 29.4133 255.69 26.9633 255.69 23.51C255.69 20.99 255.293 19.1467 254.5 17.98C253.753 16.7667 252.61 15.9967 251.07 15.67C249.53 15.3433 247.243 15.18 244.21 15.18H242.32V32.96H247.01ZM247.64 60.33C249.973 60.33 251.77 59.98 253.03 59.28C254.337 58.5333 255.247 57.4133 255.76 55.92C256.273 54.4267 256.53 52.3967 256.53 49.83C256.53 46.19 255.783 43.4833 254.29 41.71C252.797 39.89 250.37 38.98 247.01 38.98H242.32V60.33H247.64ZM285.749 66.63C281.782 66.63 278.679 65.8367 276.439 64.25C274.246 62.6633 272.729 60.4467 271.889 57.6C271.049 54.7533 270.629 51.1833 270.629 46.89V9.3H278.189V47.24C278.189 51.5333 278.679 54.8 279.659 57.04C280.686 59.28 282.716 60.4 285.749 60.4C288.782 60.4 290.789 59.28 291.769 57.04C292.796 54.8 293.309 51.5333 293.309 47.24V9.3H300.799V46.89C300.799 51.1833 300.379 54.7533 299.539 57.6C298.699 60.4467 297.182 62.6633 294.989 64.25C292.796 65.8367 289.716 66.63 285.749 66.63ZM322.497 66.63C317.737 66.63 314.097 65.16 311.577 62.22C309.103 59.28 307.727 55.2433 307.447 50.11L314.447 48.22C314.68 51.86 315.38 54.8 316.547 57.04C317.76 59.28 319.743 60.4 322.497 60.4C324.55 60.4 326.09 59.84 327.117 58.72C328.19 57.5533 328.727 55.8967 328.727 53.75C328.727 51.4167 328.237 49.48 327.257 47.94C326.277 46.4 324.713 44.6967 322.567 42.83L313.047 34.43C311.133 32.75 309.733 30.9533 308.847 29.04C308.007 27.08 307.587 24.7 307.587 21.9C307.587 17.7467 308.777 14.5267 311.157 12.24C313.537 9.95333 316.78 8.81 320.887 8.81C325.367 8.81 328.75 10 331.037 12.38C333.323 14.76 334.7 18.4467 335.167 23.44L328.447 25.26C328.213 21.9467 327.56 19.4033 326.487 17.63C325.46 15.81 323.593 14.9 320.887 14.9C318.88 14.9 317.34 15.4367 316.267 16.51C315.193 17.5367 314.657 19.0767 314.657 21.13C314.657 22.81 314.937 24.2333 315.497 25.4C316.057 26.52 317.013 27.6633 318.367 28.83L327.957 37.23C330.43 39.4233 332.39 41.8033 333.837 44.37C335.33 46.9367 336.077 49.8533 336.077 53.12C336.077 57.2733 334.817 60.5633 332.297 62.99C329.777 65.4167 326.51 66.63 322.497 66.63ZM342.633 9.3H350.403V66H342.633V9.3ZM359.576 9.3H364.966L381.066 46.96V9.3H387.646V66H382.606L366.296 27.29V66H359.576V9.3ZM396.558 9.3H418.538V15.18H404.468V33.94H415.878V39.54H404.468V60.33H418.678V66H396.558V9.3ZM438.434 66.63C433.674 66.63 430.034 65.16 427.514 62.22C425.041 59.28 423.664 55.2433 423.384 50.11L430.384 48.22C430.618 51.86 431.318 54.8 432.484 57.04C433.698 59.28 435.681 60.4 438.434 60.4C440.488 60.4 442.028 59.84 443.054 58.72C444.128 57.5533 444.664 55.8967 444.664 53.75C444.664 51.4167 444.174 49.48 443.194 47.94C442.214 46.4 440.651 44.6967 438.504 42.83L428.984 34.43C427.071 32.75 425.671 30.9533 424.784 29.04C423.944 27.08 423.524 24.7 423.524 21.9C423.524 17.7467 424.714 14.5267 427.094 12.24C429.474 9.95333 432.718 8.81 436.824 8.81C441.304 8.81 444.688 10 446.974 12.38C449.261 14.76 450.638 18.4467 451.104 23.44L444.384 25.26C444.151 21.9467 443.498 19.4033 442.424 17.63C441.398 15.81 439.531 14.9 436.824 14.9C434.818 14.9 433.278 15.4367 432.204 16.51C431.131 17.5367 430.594 19.0767 430.594 21.13C430.594 22.81 430.874 24.2333 431.434 25.4C431.994 26.52 432.951 27.6633 434.304 28.83L443.894 37.23C446.368 39.4233 448.328 41.8033 449.774 44.37C451.268 46.9367 452.014 49.8533 452.014 53.12C452.014 57.2733 450.754 60.5633 448.234 62.99C445.714 65.4167 442.448 66.63 438.434 66.63ZM471.52 66.63C466.76 66.63 463.12 65.16 460.6 62.22C458.127 59.28 456.75 55.2433 456.47 50.11L463.47 48.22C463.704 51.86 464.404 54.8 465.57 57.04C466.784 59.28 468.767 60.4 471.52 60.4C473.574 60.4 475.114 59.84 476.14 58.72C477.214 57.5533 477.75 55.8967 477.75 53.75C477.75 51.4167 477.26 49.48 476.28 47.94C475.3 46.4 473.737 44.6967 471.59 42.83L462.07 34.43C460.157 32.75 458.757 30.9533 457.87 29.04C457.03 27.08 456.61 24.7 456.61 21.9C456.61 17.7467 457.8 14.5267 460.18 12.24C462.56 9.95333 465.804 8.81 469.91 8.81C474.39 8.81 477.774 10 480.06 12.38C482.347 14.76 483.724 18.4467 484.19 23.44L477.47 25.26C477.237 21.9467 476.584 19.4033 475.51 17.63C474.484 15.81 472.617 14.9 469.91 14.9C467.904 14.9 466.364 15.4367 465.29 16.51C464.217 17.5367 463.68 19.0767 463.68 21.13C463.68 22.81 463.96 24.2333 464.52 25.4C465.08 26.52 466.037 27.6633 467.39 28.83L476.98 37.23C479.454 39.4233 481.414 41.8033 482.86 44.37C484.354 46.9367 485.1 49.8533 485.1 53.12C485.1 57.2733 483.84 60.5633 481.32 62.99C478.8 65.4167 475.534 66.63 471.52 66.63Z" fill="black"/>
<path d="M154.06 83.8H155.896V109H154.06V83.8ZM169.501 85.456H160.429V83.8H180.409V85.456H171.337V109H169.501V85.456ZM181.677 98.524H190.929V100.144H181.677V98.524ZM203.504 109.18C201.656 109.18 199.892 108.868 198.212 108.244C196.556 107.596 195.26 106.768 194.324 105.76L195.152 104.392C196.04 105.328 197.228 106.096 198.716 106.696C200.228 107.272 201.812 107.56 203.468 107.56C205.868 107.56 207.68 107.104 208.904 106.192C210.128 105.28 210.74 104.092 210.74 102.628C210.74 101.5 210.416 100.6 209.768 99.928C209.12 99.256 208.316 98.74 207.356 98.38C206.396 98.02 205.1 97.648 203.468 97.264C201.62 96.808 200.132 96.364 199.004 95.932C197.9 95.5 196.952 94.84 196.16 93.952C195.392 93.04 195.008 91.828 195.008 90.316C195.008 89.092 195.332 87.976 195.98 86.968C196.628 85.936 197.612 85.12 198.932 84.52C200.276 83.92 201.944 83.62 203.936 83.62C205.328 83.62 206.696 83.824 208.04 84.232C209.384 84.64 210.548 85.192 211.532 85.888L210.848 87.364C209.84 86.668 208.724 86.14 207.5 85.78C206.3 85.42 205.112 85.24 203.936 85.24C201.608 85.24 199.844 85.708 198.644 86.644C197.444 87.58 196.844 88.792 196.844 90.28C196.844 91.408 197.168 92.308 197.816 92.98C198.464 93.652 199.268 94.168 200.228 94.528C201.188 94.888 202.496 95.272 204.152 95.68C206 96.136 207.476 96.58 208.58 97.012C209.684 97.444 210.62 98.104 211.388 98.992C212.18 99.856 212.576 101.032 212.576 102.52C212.576 103.744 212.24 104.86 211.568 105.868C210.92 106.876 209.912 107.68 208.544 108.28C207.176 108.88 205.496 109.18 203.504 109.18ZM234.118 100.036H217.954C218.002 101.5 218.374 102.808 219.07 103.96C219.766 105.088 220.702 105.964 221.878 106.588C223.078 107.212 224.422 107.524 225.91 107.524C227.134 107.524 228.262 107.308 229.294 106.876C230.35 106.42 231.226 105.76 231.922 104.896L232.966 106.084C232.15 107.068 231.118 107.824 229.87 108.352C228.646 108.88 227.314 109.144 225.874 109.144C224.002 109.144 222.334 108.736 220.87 107.92C219.406 107.104 218.254 105.976 217.414 104.536C216.598 103.096 216.19 101.452 216.19 99.604C216.19 97.78 216.574 96.148 217.342 94.708C218.134 93.244 219.214 92.104 220.582 91.288C221.95 90.472 223.486 90.064 225.19 90.064C226.894 90.064 228.418 90.472 229.762 91.288C231.13 92.08 232.198 93.196 232.966 94.636C233.758 96.076 234.154 97.708 234.154 99.532L234.118 100.036ZM225.19 91.648C223.87 91.648 222.682 91.948 221.626 92.548C220.57 93.124 219.718 93.952 219.07 95.032C218.446 96.088 218.086 97.288 217.99 98.632H232.39C232.318 97.288 231.958 96.088 231.31 95.032C230.662 93.976 229.81 93.148 228.754 92.548C227.698 91.948 226.51 91.648 225.19 91.648ZM241.45 94.312C242.026 92.944 242.926 91.9 244.15 91.18C245.374 90.436 246.862 90.064 248.614 90.064V91.828L248.182 91.792C246.094 91.792 244.462 92.452 243.286 93.772C242.11 95.068 241.522 96.88 241.522 99.208V109H239.722V90.208H241.45V94.312ZM269.502 90.208L261.006 109H259.17L250.71 90.208H252.618L260.106 107.02L267.666 90.208H269.502ZM273.437 90.208H275.237V109H273.437V90.208ZM274.337 85.636C273.929 85.636 273.581 85.504 273.293 85.24C273.005 84.952 272.861 84.604 272.861 84.196C272.861 83.788 273.005 83.44 273.293 83.152C273.581 82.864 273.929 82.72 274.337 82.72C274.745 82.72 275.093 82.864 275.381 83.152C275.669 83.416 275.813 83.752 275.813 84.16C275.813 84.568 275.669 84.916 275.381 85.204C275.093 85.492 274.745 85.636 274.337 85.636ZM290.276 109.144C288.452 109.144 286.82 108.736 285.38 107.92C283.94 107.104 282.812 105.976 281.996 104.536C281.18 103.072 280.772 101.428 280.772 99.604C280.772 97.756 281.18 96.112 281.996 94.672C282.812 93.208 283.94 92.08 285.38 91.288C286.82 90.472 288.452 90.064 290.276 90.064C291.788 90.064 293.156 90.364 294.38 90.964C295.628 91.54 296.636 92.392 297.404 93.52L296.072 94.492C295.4 93.556 294.56 92.86 293.552 92.404C292.568 91.924 291.476 91.684 290.276 91.684C288.812 91.684 287.492 92.02 286.316 92.692C285.164 93.34 284.252 94.264 283.58 95.464C282.932 96.664 282.608 98.044 282.608 99.604C282.608 101.164 282.932 102.544 283.58 103.744C284.252 104.944 285.164 105.88 286.316 106.552C287.492 107.2 288.812 107.524 290.276 107.524C291.476 107.524 292.568 107.296 293.552 106.84C294.56 106.36 295.4 105.652 296.072 104.716L297.404 105.688C296.636 106.816 295.628 107.68 294.38 108.28C293.156 108.856 291.788 109.144 290.276 109.144ZM318.352 100.036H302.188C302.236 101.5 302.608 102.808 303.304 103.96C304 105.088 304.936 105.964 306.112 106.588C307.312 107.212 308.656 107.524 310.144 107.524C311.368 107.524 312.496 107.308 313.528 106.876C314.584 106.42 315.46 105.76 316.156 104.896L317.2 106.084C316.384 107.068 315.352 107.824 314.104 108.352C312.88 108.88 311.548 109.144 310.108 109.144C308.236 109.144 306.568 108.736 305.104 107.92C303.64 107.104 302.488 105.976 301.648 104.536C300.832 103.096 300.424 101.452 300.424 99.604C300.424 97.78 300.808 96.148 301.576 94.708C302.368 93.244 303.448 92.104 304.816 91.288C306.184 90.472 307.72 90.064 309.424 90.064C311.128 90.064 312.652 90.472 313.996 91.288C315.364 92.08 316.432 93.196 317.2 94.636C317.992 96.076 318.388 97.708 318.388 99.532L318.352 100.036ZM309.424 91.648C308.104 91.648 306.916 91.948 305.86 92.548C304.804 93.124 303.952 93.952 303.304 95.032C302.68 96.088 302.32 97.288 302.224 98.632H316.624C316.552 97.288 316.192 96.088 315.544 95.032C314.896 93.976 314.044 93.148 312.988 92.548C311.932 91.948 310.744 91.648 309.424 91.648ZM328.709 109.144C327.197 109.144 325.757 108.916 324.389 108.46C323.021 108.004 321.953 107.428 321.185 106.732L322.013 105.292C322.781 105.94 323.765 106.48 324.965 106.912C326.189 107.344 327.461 107.56 328.781 107.56C330.677 107.56 332.069 107.248 332.957 106.624C333.869 106 334.325 105.136 334.325 104.032C334.325 103.24 334.073 102.616 333.569 102.16C333.089 101.704 332.489 101.368 331.769 101.152C331.049 100.936 330.053 100.708 328.781 100.468C327.293 100.204 326.093 99.916 325.181 99.604C324.269 99.292 323.489 98.788 322.841 98.092C322.193 97.396 321.869 96.436 321.869 95.212C321.869 93.724 322.481 92.5 323.705 91.54C324.953 90.556 326.717 90.064 328.997 90.064C330.197 90.064 331.385 90.232 332.561 90.568C333.737 90.904 334.697 91.348 335.441 91.9L334.613 93.34C333.845 92.788 332.969 92.368 331.985 92.08C331.001 91.792 329.993 91.648 328.961 91.648C327.209 91.648 325.889 91.972 325.001 92.62C324.113 93.268 323.669 94.12 323.669 95.176C323.669 96.016 323.921 96.676 324.425 97.156C324.929 97.612 325.541 97.96 326.261 98.2C327.005 98.416 328.037 98.656 329.357 98.92C330.821 99.184 331.997 99.472 332.885 99.784C333.797 100.072 334.565 100.552 335.189 101.224C335.813 101.896 336.125 102.82 336.125 103.996C336.125 105.556 335.477 106.804 334.181 107.74C332.885 108.676 331.061 109.144 328.709 109.144Z" fill="black"/>
</svg>
